<svg id="Layer_1" data-name="Layer 1" xmlns="http://www.w3.org/2000/svg" viewBox="0 0 675.63 351.91"><defs><style>.cls-1{fill:#ff3700;}.cls-2{fill:#414141;}</style></defs><path class="cls-1" d="M601.72,156.92a19.12,19.12,0,0,1-8.18-2.09c-37.11-19.32-79.21-30.75-120.09-30.75a128.89,128.89,0,0,0-13.7.68,454.27,454.27,0,0,0,30.1,41c2.37,2.83,3.07,4.54,3.07,7.28,0,4.77-5,9.38-10.35,9.38-3.56,0-5.68-1.41-9-5.28-11.08-13-27.72-36-35.61-49.13-38.8,6.86-82.06,29.78-107.62,50-2.92,2.34-5,3.31-7.89,3.31a10.33,10.33,0,0,1-10.15-10c0-3.09,1.14-5.42,5.14-8.75,39-32.47,99.6-58.12,151.05-58.12A248.31,248.31,0,0,1,527.62,112a296.28,296.28,0,0,1,43.27,14.94c-38.25-23.12-86.21-44.24-116.54-44.24-7.73,0-12.47,2.59-12.47,7.8,0,3.07,1.72,7.17,4.26,11.3A139.66,139.66,0,0,0,426,105.23c-3.16-5.8-5.36-12-5.36-18.62,0-14.79,9.64-23.89,29-23.89,44,0,117.83,41,154.69,70.89,4.22,3.43,8.38,7.68,8.38,12.67A11,11,0,0,1,601.72,156.92Z"/><path class="cls-2" d="M124,244.09c0-2.64,1.6-4.27,4.05-4.27s4,1.63,4,4.27v4.45c2.14-4.39,6.89-8.72,11.15-8.72,2.75,0,4.08,1.61,4.08,3.75s-1.14,3.65-4.67,4.64c-7.33,2-10.54,6.13-10.54,14V285c0,2.64-1.55,4.27-4,4.27S124,287.61,124,285Z"/><path class="cls-2" d="M304.31,244.09c0-2.64,1.59-4.27,4.05-4.27s4,1.63,4,4.27v4.45c2.14-4.39,6.89-8.72,11.15-8.72,2.75,0,4.08,1.61,4.08,3.75s-1.14,3.65-4.67,4.64c-7.34,2-10.54,6.13-10.54,14V285c0,2.64-1.55,4.27-4,4.27s-4.05-1.63-4.05-4.27Z"/><path class="cls-2" d="M170.2,239.82c7.85,0,12.9,3.15,12.9,6a3.29,3.29,0,0,1-3.17,3.39c-2.93,0-4.32-2.38-9.73-2.38-9.13,0-13.81,8.17-13.81,17.71,0,10.34,5.28,17.71,13.81,17.71,6,0,7.25-2.46,10.05-2.46a2.81,2.81,0,0,1,2.92,3.11c0,1.82-1.5,3.3-4.21,4.55a21.55,21.55,0,0,1-8.76,1.8c-13.68,0-21.89-10.26-21.89-24.71C148.31,250.39,156.59,239.82,170.2,239.82Z"/><path class="cls-2" d="M194.88,267.62c.15,7.9,5.27,14.62,14.27,14.62,9.45,0,11.69-5.3,15.1-5.3a3.12,3.12,0,0,1,3.26,3.33c0,3.91-8.63,9-18.29,9-7.22,0-12.07-2.29-15.68-5.95-4.6-4.66-6.74-11.54-6.74-18.76,0-13.2,8.18-24.71,21.72-24.71,12.59,0,20.75,11.11,20.75,23.53,0,2.81-1.14,4.27-4.45,4.27Zm26.34-6c0-6.9-3.93-14.8-12.74-14.8-8.66,0-13.3,6.8-13.6,14.8Z"/><path class="cls-2" d="M245.75,285c0,2.64-1.56,4.27-4,4.27s-4-1.63-4-4.27V227.74c0-2.64,1.58-4.28,4-4.28s4,1.64,4,4.28Z"/><path class="cls-2" d="M275,289.26c-12.79,0-21.3-10.19-21.3-24.73s8.51-24.73,21.3-24.73,21.29,10.2,21.29,24.73S287.8,289.26,275,289.26Zm0-7c7.83,0,13.21-6.84,13.21-17.71s-5.38-17.71-13.21-17.71-13.22,6.84-13.22,17.71S267.18,282.24,275,282.24Z"/><path class="cls-2" d="M383.39,243.15c-4.49,15.41-11.85,40.74-12.46,42.82a4,4,0,0,1-4.27,3.27c-2.2,0-3.56-.81-4.27-3.27L349.6,242c-.73-2.51-1.41-5.49-1.92-8-.31,2.46-.7,5.34-1.13,8-2.3,14.41-5.86,36.87-6.85,43.21-.44,2.8-1.86,4-4.19,4s-3.59-1.47-3.59-3.81a23,23,0,0,1,.45-3.63s8.06-48.54,8.71-52.25c.69-4,2.74-6.09,6.09-6.09,3,0,5.34,1.76,6.29,5,.58,2.05,7.08,24.85,11.22,39.26.75,2.66,1.52,5.79,2.1,8.62.55-2.77,1.27-5.77,2-8.36l11.35-39.52c.94-3.29,3-5,6-5,3.15,0,5.45,2,6.09,6.09.6,3.72,8.72,52.25,8.72,52.25a22.8,22.8,0,0,1,.44,3.63c0,2.34-1.39,3.81-3.58,3.81s-3.76-1.19-4.19-4c-1-6.15-4.36-27.54-6.66-42-.47-2.95-.9-6.29-1.26-9.35C385.13,236.61,384.34,239.89,383.39,243.15Z"/><path class="cls-2" d="M415.55,225.65a4.91,4.91,0,1,1-4.9,4.9A4.88,4.88,0,0,1,415.55,225.65Zm4,18.44c0-2.64-1.58-4.27-4-4.27s-4,1.63-4,4.27V285c0,2.64,1.56,4.27,4,4.27s4-1.63,4-4.27Z"/><path class="cls-2" d="M433.57,229.91c0-2.63,1.56-4.26,4-4.26s4,1.63,4,4.26v10.45h3.27c2.63,0,4,1.29,4,3.47s-1.36,3.49-4,3.49h-3.27V285c0,2.64-1.58,4.27-4,4.27s-4-1.63-4-4.27V247.32h-2.92c-2.63,0-4-1.31-4-3.49s1.36-3.47,4-3.47h2.92Z"/><path class="cls-2" d="M458.93,229.91c0-2.63,1.57-4.26,4-4.26s4,1.63,4,4.26v10.45h3.27c2.64,0,4,1.29,4,3.47s-1.36,3.49-4,3.49H467V285c0,2.64-1.56,4.27-4,4.27s-4-1.63-4-4.27V247.32H456c-2.63,0-4-1.31-4-3.49s1.36-3.47,4-3.47h2.94Z"/><path class="cls-2" d="M115.39,281.88c-1.68-4.5-17.39-46.73-19.84-53.24-1.22-3.27-3.1-5.18-6.2-5.18s-4.87,1.91-6.11,5.18c-1.11,2.93-18.21,48.75-19.92,53.24a12.07,12.07,0,0,0-1,3.9,3.59,3.59,0,0,0,3.81,3.46,4,4,0,0,0,4.08-3c.41-1.13,2.63-7.36,5.47-15.31h27.4c2.67,7.5,4.83,13.53,5.47,15.31a3.93,3.93,0,0,0,3.91,3c2.08,0,4-1.27,4-3.36C116.48,285,116.26,284.23,115.39,281.88Zm-37.2-18.05c3.33-9.35,7-19.57,9.41-26.4.68-1.91,1.28-3.72,1.75-5.22.51,1.63,1.13,3.48,1.74,5.2l9.42,26.42Z"/><path class="cls-2" d="M539.92,285c0,2.64-1.58,4.27-4,4.27s-4-1.63-4-4.27V227.74c0-2.64,1.56-4.28,4-4.28s4,1.64,4,4.28Z"/><path class="cls-2" d="M516.49,239.82c-2.46,0-4,1.63-4,4.27v3.61a15.73,15.73,0,0,0-13.76-7.9C486.46,239.8,478,250,478,264.53s8.42,24.73,20.67,24.73a15.73,15.73,0,0,0,13.76-7.9V285c0,2.64,1.56,4.27,4,4.27s4-1.63,4-4.27V244.09C520.52,241.45,518.94,239.82,516.49,239.82Zm-17.15,42.43c-7.84,0-13.22-6.85-13.22-17.72s5.38-17.72,13.22-17.72,13.21,6.85,13.21,17.72S507.18,282.25,499.34,282.25Z"/></svg>